<mxfile host="app.diagrams.net" modified="2023-02-02T15:33:38.331Z" agent="5.0 (Macintosh; Intel Mac OS X 10_15_7) AppleWebKit/605.1.15 (KHTML, like Gecko) Version/15.6.1 Safari/605.1.15" etag="7P_bbqXtEUN8YT4eL3Hn" version="20.8.15" type="github">
  <diagram name="Page-1" id="24cGuhFqlBtAouZnWeeH">
    <mxGraphModel dx="1194" dy="797" grid="1" gridSize="10" guides="1" tooltips="1" connect="1" arrows="1" fold="1" page="1" pageScale="1" pageWidth="850" pageHeight="1100" math="0" shadow="0">
      <root>
        <mxCell id="0" />
        <mxCell id="1" parent="0" />
        <mxCell id="K8Uam2Voq4mU4n3GS_Z4-25" style="edgeStyle=orthogonalEdgeStyle;rounded=0;orthogonalLoop=1;jettySize=auto;html=1;" parent="1" source="gwAT7ZUjaCjg8AmAKzfd-1" edge="1">
          <mxGeometry relative="1" as="geometry">
            <mxPoint x="330" y="330" as="targetPoint" />
          </mxGeometry>
        </mxCell>
        <mxCell id="gwAT7ZUjaCjg8AmAKzfd-1" value="Customer" style="shape=umlActor;verticalLabelPosition=bottom;verticalAlign=top;html=1;outlineConnect=0;labelPosition=right;align=left;" parent="1" vertex="1">
          <mxGeometry x="130" y="300" width="30" height="60" as="geometry" />
        </mxCell>
        <mxCell id="gwAT7ZUjaCjg8AmAKzfd-4" value="Time to eat, what should I choose?" style="ellipse;whiteSpace=wrap;html=1;verticalAlign=middle;labelPosition=center;verticalLabelPosition=middle;align=center;" parent="1" vertex="1">
          <mxGeometry x="170" y="220" width="80" height="80" as="geometry" />
        </mxCell>
        <mxCell id="K8Uam2Voq4mU4n3GS_Z4-64" style="edgeStyle=orthogonalEdgeStyle;rounded=0;orthogonalLoop=1;jettySize=auto;html=1;exitX=1;exitY=0.5;exitDx=0;exitDy=0;" parent="1" source="K8Uam2Voq4mU4n3GS_Z4-11" target="K8Uam2Voq4mU4n3GS_Z4-61" edge="1">
          <mxGeometry relative="1" as="geometry" />
        </mxCell>
        <mxCell id="K8Uam2Voq4mU4n3GS_Z4-11" value="" style="swimlane;startSize=0;movable=1;resizable=1;rotatable=1;deletable=1;editable=1;connectable=1;" parent="1" vertex="1">
          <mxGeometry x="330" y="250" width="190" height="150" as="geometry" />
        </mxCell>
        <mxCell id="K8Uam2Voq4mU4n3GS_Z4-12" value="Restaurant List" style="text;html=1;align=center;verticalAlign=middle;resizable=1;points=[];autosize=1;strokeColor=none;fillColor=none;movable=1;rotatable=1;deletable=1;editable=1;connectable=1;" parent="K8Uam2Voq4mU4n3GS_Z4-11" vertex="1">
          <mxGeometry y="5" width="170" height="30" as="geometry" />
        </mxCell>
        <mxCell id="K8Uam2Voq4mU4n3GS_Z4-13" value="Open" style="text;html=1;strokeColor=none;fillColor=none;align=center;verticalAlign=middle;whiteSpace=wrap;rounded=0;movable=0;resizable=0;rotatable=0;deletable=0;editable=0;connectable=0;" parent="K8Uam2Voq4mU4n3GS_Z4-11" vertex="1">
          <mxGeometry x="40" y="35" width="60" height="30" as="geometry" />
        </mxCell>
        <mxCell id="K8Uam2Voq4mU4n3GS_Z4-15" value="Open" style="text;html=1;strokeColor=none;fillColor=none;align=center;verticalAlign=middle;whiteSpace=wrap;rounded=0;movable=0;resizable=0;rotatable=0;deletable=0;editable=0;connectable=0;" parent="K8Uam2Voq4mU4n3GS_Z4-11" vertex="1">
          <mxGeometry x="40" y="65" width="60" height="30" as="geometry" />
        </mxCell>
        <mxCell id="K8Uam2Voq4mU4n3GS_Z4-18" value="Closed" style="text;html=1;strokeColor=none;fillColor=none;align=center;verticalAlign=middle;whiteSpace=wrap;rounded=0;movable=0;resizable=0;rotatable=0;deletable=0;editable=0;connectable=0;" parent="K8Uam2Voq4mU4n3GS_Z4-11" vertex="1">
          <mxGeometry x="40" y="100" width="60" height="30" as="geometry" />
        </mxCell>
        <mxCell id="K8Uam2Voq4mU4n3GS_Z4-19" value="..." style="text;html=1;strokeColor=none;fillColor=none;align=center;verticalAlign=middle;whiteSpace=wrap;rounded=0;movable=1;resizable=1;rotatable=1;deletable=1;editable=1;connectable=1;" parent="K8Uam2Voq4mU4n3GS_Z4-11" vertex="1">
          <mxGeometry x="40" y="120" width="60" height="30" as="geometry" />
        </mxCell>
        <mxCell id="K8Uam2Voq4mU4n3GS_Z4-21" value="1" style="text;html=1;strokeColor=none;fillColor=none;align=center;verticalAlign=middle;whiteSpace=wrap;rounded=0;movable=0;resizable=0;rotatable=0;deletable=0;editable=0;connectable=0;" parent="K8Uam2Voq4mU4n3GS_Z4-11" vertex="1">
          <mxGeometry x="-10" y="35" width="60" height="30" as="geometry" />
        </mxCell>
        <mxCell id="K8Uam2Voq4mU4n3GS_Z4-22" value="2" style="text;html=1;strokeColor=none;fillColor=none;align=center;verticalAlign=middle;whiteSpace=wrap;rounded=0;movable=0;resizable=0;rotatable=0;deletable=0;editable=0;connectable=0;" parent="K8Uam2Voq4mU4n3GS_Z4-11" vertex="1">
          <mxGeometry x="-10" y="65" width="60" height="30" as="geometry" />
        </mxCell>
        <mxCell id="K8Uam2Voq4mU4n3GS_Z4-23" value="3" style="text;html=1;strokeColor=none;fillColor=none;align=center;verticalAlign=middle;whiteSpace=wrap;rounded=0;movable=0;resizable=0;rotatable=0;deletable=0;editable=0;connectable=0;" parent="K8Uam2Voq4mU4n3GS_Z4-11" vertex="1">
          <mxGeometry x="-10" y="95" width="60" height="30" as="geometry" />
        </mxCell>
        <mxCell id="K8Uam2Voq4mU4n3GS_Z4-29" style="edgeStyle=orthogonalEdgeStyle;rounded=0;orthogonalLoop=1;jettySize=auto;html=1;exitX=0.5;exitY=1;exitDx=0;exitDy=0;entryX=0.9;entryY=1.2;entryDx=0;entryDy=0;entryPerimeter=0;" parent="K8Uam2Voq4mU4n3GS_Z4-11" source="K8Uam2Voq4mU4n3GS_Z4-11" target="K8Uam2Voq4mU4n3GS_Z4-19" edge="1">
          <mxGeometry relative="1" as="geometry" />
        </mxCell>
        <mxCell id="K8Uam2Voq4mU4n3GS_Z4-34" value="Order" style="text;html=1;strokeColor=none;fillColor=none;align=center;verticalAlign=middle;whiteSpace=wrap;rounded=0;" parent="K8Uam2Voq4mU4n3GS_Z4-11" vertex="1">
          <mxGeometry x="110" y="35" width="60" height="30" as="geometry" />
        </mxCell>
        <mxCell id="K8Uam2Voq4mU4n3GS_Z4-46" value="Order" style="text;html=1;strokeColor=none;fillColor=none;align=center;verticalAlign=middle;whiteSpace=wrap;rounded=0;" parent="K8Uam2Voq4mU4n3GS_Z4-11" vertex="1">
          <mxGeometry x="110" y="65" width="60" height="30" as="geometry" />
        </mxCell>
        <mxCell id="K8Uam2Voq4mU4n3GS_Z4-47" value="Order" style="text;html=1;strokeColor=none;fillColor=none;align=center;verticalAlign=middle;whiteSpace=wrap;rounded=0;" parent="K8Uam2Voq4mU4n3GS_Z4-11" vertex="1">
          <mxGeometry x="110" y="100" width="60" height="30" as="geometry" />
        </mxCell>
        <mxCell id="dpScCvn75QKcrCQb_mfu-1" value="Sign out" style="text;html=1;strokeColor=none;fillColor=none;align=center;verticalAlign=middle;whiteSpace=wrap;rounded=0;" vertex="1" parent="K8Uam2Voq4mU4n3GS_Z4-11">
          <mxGeometry x="140" y="-10" width="60" height="30" as="geometry" />
        </mxCell>
        <mxCell id="K8Uam2Voq4mU4n3GS_Z4-24" value="aMAC" style="text;html=1;strokeColor=none;fillColor=none;align=center;verticalAlign=middle;whiteSpace=wrap;rounded=0;movable=1;resizable=1;rotatable=1;deletable=1;editable=1;connectable=1;" parent="1" vertex="1">
          <mxGeometry x="330" y="220" width="180" height="30" as="geometry" />
        </mxCell>
        <mxCell id="K8Uam2Voq4mU4n3GS_Z4-28" value="" style="shape=parallelogram;perimeter=parallelogramPerimeter;whiteSpace=wrap;html=1;fixedSize=1;" parent="1" vertex="1">
          <mxGeometry x="310" y="400" width="200" height="70" as="geometry" />
        </mxCell>
        <mxCell id="K8Uam2Voq4mU4n3GS_Z4-26" value="Customer" style="shape=umlActor;verticalLabelPosition=bottom;verticalAlign=top;html=1;outlineConnect=0;labelPosition=right;align=left;" parent="1" vertex="1">
          <mxGeometry x="330" y="370" width="30" height="60" as="geometry" />
        </mxCell>
        <mxCell id="K8Uam2Voq4mU4n3GS_Z4-60" style="edgeStyle=orthogonalEdgeStyle;rounded=0;orthogonalLoop=1;jettySize=auto;html=1;exitX=0;exitY=0.5;exitDx=0;exitDy=0;entryX=1;entryY=0.5;entryDx=0;entryDy=0;" parent="1" source="K8Uam2Voq4mU4n3GS_Z4-30" target="K8Uam2Voq4mU4n3GS_Z4-49" edge="1">
          <mxGeometry relative="1" as="geometry" />
        </mxCell>
        <mxCell id="K8Uam2Voq4mU4n3GS_Z4-30" value="" style="shape=process;whiteSpace=wrap;html=1;backgroundOutline=1;" parent="1" vertex="1">
          <mxGeometry x="470" y="660" width="200" height="60" as="geometry" />
        </mxCell>
        <mxCell id="K8Uam2Voq4mU4n3GS_Z4-31" value="" style="rounded=0;whiteSpace=wrap;html=1;" parent="1" vertex="1">
          <mxGeometry x="550" y="680" width="40" height="40" as="geometry" />
        </mxCell>
        <mxCell id="K8Uam2Voq4mU4n3GS_Z4-32" value="Restaurant" style="text;html=1;strokeColor=none;fillColor=none;align=center;verticalAlign=middle;whiteSpace=wrap;rounded=0;" parent="1" vertex="1">
          <mxGeometry x="570" y="620" width="60" height="30" as="geometry" />
        </mxCell>
        <mxCell id="K8Uam2Voq4mU4n3GS_Z4-48" value="DeliveryMan" style="shape=umlActor;verticalLabelPosition=bottom;verticalAlign=top;html=1;outlineConnect=0;labelPosition=right;align=left;" parent="1" vertex="1">
          <mxGeometry x="550" y="700" width="20" height="40" as="geometry" />
        </mxCell>
        <mxCell id="K8Uam2Voq4mU4n3GS_Z4-53" style="edgeStyle=orthogonalEdgeStyle;rounded=0;orthogonalLoop=1;jettySize=auto;html=1;exitX=0;exitY=0.5;exitDx=0;exitDy=0;" parent="1" source="K8Uam2Voq4mU4n3GS_Z4-49" target="K8Uam2Voq4mU4n3GS_Z4-52" edge="1">
          <mxGeometry relative="1" as="geometry" />
        </mxCell>
        <mxCell id="K8Uam2Voq4mU4n3GS_Z4-49" value="" style="whiteSpace=wrap;html=1;aspect=fixed;" parent="1" vertex="1">
          <mxGeometry x="330" y="650" width="80" height="80" as="geometry" />
        </mxCell>
        <mxCell id="K8Uam2Voq4mU4n3GS_Z4-51" value="House" style="text;html=1;strokeColor=none;fillColor=none;align=center;verticalAlign=middle;whiteSpace=wrap;rounded=0;" parent="1" vertex="1">
          <mxGeometry x="340" y="620" width="60" height="30" as="geometry" />
        </mxCell>
        <mxCell id="K8Uam2Voq4mU4n3GS_Z4-52" value="" style="rounded=0;whiteSpace=wrap;html=1;" parent="1" vertex="1">
          <mxGeometry x="40" y="650" width="170" height="80" as="geometry" />
        </mxCell>
        <mxCell id="K8Uam2Voq4mU4n3GS_Z4-54" value="Dining room" style="text;html=1;strokeColor=none;fillColor=none;align=center;verticalAlign=middle;whiteSpace=wrap;rounded=0;" parent="1" vertex="1">
          <mxGeometry x="80" y="620" width="95" height="30" as="geometry" />
        </mxCell>
        <mxCell id="K8Uam2Voq4mU4n3GS_Z4-55" value="Customer" style="shape=umlActor;verticalLabelPosition=bottom;verticalAlign=top;html=1;outlineConnect=0;labelPosition=right;align=left;" parent="1" vertex="1">
          <mxGeometry x="355" y="670" width="30" height="60" as="geometry" />
        </mxCell>
        <mxCell id="K8Uam2Voq4mU4n3GS_Z4-57" value="Customer" style="shape=umlActor;verticalLabelPosition=bottom;verticalAlign=top;html=1;outlineConnect=0;labelPosition=right;align=left;" parent="1" vertex="1">
          <mxGeometry x="90" y="670" width="30" height="60" as="geometry" />
        </mxCell>
        <mxCell id="K8Uam2Voq4mU4n3GS_Z4-58" value="food" style="ellipse;whiteSpace=wrap;html=1;" parent="1" vertex="1">
          <mxGeometry x="120" y="675" width="60" height="30" as="geometry" />
        </mxCell>
        <mxCell id="K8Uam2Voq4mU4n3GS_Z4-59" value="DeliveryMan" style="shape=umlActor;verticalLabelPosition=bottom;verticalAlign=top;html=1;outlineConnect=0;labelPosition=right;align=left;" parent="1" vertex="1">
          <mxGeometry x="320" y="750" width="20" height="40" as="geometry" />
        </mxCell>
        <mxCell id="K8Uam2Voq4mU4n3GS_Z4-74" style="edgeStyle=orthogonalEdgeStyle;rounded=0;orthogonalLoop=1;jettySize=auto;html=1;entryX=0.5;entryY=0;entryDx=0;entryDy=0;" parent="1" source="K8Uam2Voq4mU4n3GS_Z4-61" target="K8Uam2Voq4mU4n3GS_Z4-65" edge="1">
          <mxGeometry relative="1" as="geometry" />
        </mxCell>
        <mxCell id="K8Uam2Voq4mU4n3GS_Z4-61" value="" style="swimlane;startSize=0;" parent="1" vertex="1">
          <mxGeometry x="590" y="250" width="120" height="150" as="geometry" />
        </mxCell>
        <mxCell id="K8Uam2Voq4mU4n3GS_Z4-62" value="Resto2 Order" style="text;html=1;strokeColor=none;fillColor=none;align=center;verticalAlign=middle;whiteSpace=wrap;rounded=0;" parent="K8Uam2Voq4mU4n3GS_Z4-61" vertex="1">
          <mxGeometry x="30" width="60" height="30" as="geometry" />
        </mxCell>
        <mxCell id="K8Uam2Voq4mU4n3GS_Z4-63" value="What&lt;br&gt;When&lt;br&gt;Who&lt;br&gt;Payment&lt;br&gt;..." style="text;html=1;strokeColor=none;fillColor=none;align=center;verticalAlign=middle;whiteSpace=wrap;rounded=0;" parent="K8Uam2Voq4mU4n3GS_Z4-61" vertex="1">
          <mxGeometry x="30" y="60" width="60" height="30" as="geometry" />
        </mxCell>
        <mxCell id="K8Uam2Voq4mU4n3GS_Z4-65" value="" style="shape=process;whiteSpace=wrap;html=1;backgroundOutline=1;" parent="1" vertex="1">
          <mxGeometry x="555" y="480" width="190" height="60" as="geometry" />
        </mxCell>
        <mxCell id="K8Uam2Voq4mU4n3GS_Z4-75" style="edgeStyle=orthogonalEdgeStyle;rounded=0;orthogonalLoop=1;jettySize=auto;html=1;entryX=0.9;entryY=-0.017;entryDx=0;entryDy=0;entryPerimeter=0;" parent="1" source="K8Uam2Voq4mU4n3GS_Z4-66" target="K8Uam2Voq4mU4n3GS_Z4-30" edge="1">
          <mxGeometry relative="1" as="geometry" />
        </mxCell>
        <mxCell id="K8Uam2Voq4mU4n3GS_Z4-66" value="" style="rounded=0;whiteSpace=wrap;html=1;" parent="1" vertex="1">
          <mxGeometry x="630" y="500" width="40" height="40" as="geometry" />
        </mxCell>
        <mxCell id="K8Uam2Voq4mU4n3GS_Z4-68" value="Chef" style="shape=umlActor;verticalLabelPosition=bottom;verticalAlign=top;html=1;outlineConnect=0;labelPosition=right;align=left;" parent="1" vertex="1">
          <mxGeometry x="580" y="500" width="20" height="40" as="geometry" />
        </mxCell>
        <mxCell id="K8Uam2Voq4mU4n3GS_Z4-70" value="Order" style="shape=note;whiteSpace=wrap;html=1;backgroundOutline=1;darkOpacity=0.05;size=0;" parent="1" vertex="1">
          <mxGeometry x="600" y="500" width="20" height="30" as="geometry" />
        </mxCell>
        <mxCell id="K8Uam2Voq4mU4n3GS_Z4-72" value="Cashier" style="shape=umlActor;verticalLabelPosition=bottom;verticalAlign=top;html=1;outlineConnect=0;labelPosition=right;align=left;" parent="1" vertex="1">
          <mxGeometry x="690" y="500" width="20" height="40" as="geometry" />
        </mxCell>
        <mxCell id="K8Uam2Voq4mU4n3GS_Z4-73" value="Bill confirmation" style="shape=tape;whiteSpace=wrap;html=1;rotation=0;" parent="1" vertex="1">
          <mxGeometry x="710" y="480" width="30" height="60" as="geometry" />
        </mxCell>
        <mxCell id="K8Uam2Voq4mU4n3GS_Z4-76" value="On Line Food Order Process Story" style="text;html=1;strokeColor=none;fillColor=none;align=center;verticalAlign=middle;whiteSpace=wrap;rounded=0;fontSize=19;" parent="1" vertex="1">
          <mxGeometry x="240" y="120" width="430" height="30" as="geometry" />
        </mxCell>
        <mxCell id="K8Uam2Voq4mU4n3GS_Z4-77" value="" style="endArrow=none;dashed=1;html=1;dashPattern=1 3;strokeWidth=2;rounded=0;fontSize=19;" parent="1" edge="1">
          <mxGeometry width="50" height="50" relative="1" as="geometry">
            <mxPoint x="530" y="210" as="sourcePoint" />
            <mxPoint x="530" y="210" as="targetPoint" />
            <Array as="points">
              <mxPoint x="780" y="210" />
              <mxPoint x="780" y="790" />
              <mxPoint x="440" y="790" />
              <mxPoint x="440" y="620" />
              <mxPoint x="530" y="620" />
            </Array>
          </mxGeometry>
        </mxCell>
        <mxCell id="K8Uam2Voq4mU4n3GS_Z4-78" value="&lt;font style=&quot;font-size: 12px;&quot;&gt;UnseenByCustomer&lt;/font&gt;" style="text;html=1;strokeColor=none;fillColor=none;align=center;verticalAlign=middle;whiteSpace=wrap;rounded=0;fontSize=19;" parent="1" vertex="1">
          <mxGeometry x="630" y="170" width="60" height="30" as="geometry" />
        </mxCell>
        <mxCell id="K8Uam2Voq4mU4n3GS_Z4-80" value="Thx for the food! Here&#39;s your tip" style="ellipse;whiteSpace=wrap;html=1;fontSize=12;" parent="1" vertex="1">
          <mxGeometry x="280" y="620" width="70" height="60" as="geometry" />
        </mxCell>
        <mxCell id="K8Uam2Voq4mU4n3GS_Z4-81" value="" style="rounded=0;whiteSpace=wrap;html=1;fontSize=12;rotation=90;" parent="1" vertex="1">
          <mxGeometry x="240" y="750" width="75" height="75" as="geometry" />
        </mxCell>
        <mxCell id="K8Uam2Voq4mU4n3GS_Z4-82" value="Customer Sgnature&lt;br&gt;Received confirmation" style="text;html=1;strokeColor=none;fillColor=none;align=center;verticalAlign=middle;whiteSpace=wrap;rounded=0;fontSize=12;" parent="1" vertex="1">
          <mxGeometry x="247.5" y="767.5" width="60" height="40" as="geometry" />
        </mxCell>
        <mxCell id="K8Uam2Voq4mU4n3GS_Z4-83" value="aPHONE" style="text;html=1;strokeColor=none;fillColor=none;align=center;verticalAlign=middle;whiteSpace=wrap;rounded=0;fontSize=12;" parent="1" vertex="1">
          <mxGeometry x="247.5" y="825" width="60" height="30" as="geometry" />
        </mxCell>
      </root>
    </mxGraphModel>
  </diagram>
</mxfile>
